<svg height="512pt" viewBox="0 0 512 512" width="512pt" xmlns="http://www.w3.org/2000/svg"><path d="m482 256h-182.941406c-4.097656-21.769531-21.289063-38.960938-43.058594-43.058594v-182.941406c0-5.523438-4.476562-10-10-10-65.710938 0-127.484375 25.589844-173.949219 72.050781-46.460937 46.464844-72.050781 108.238281-72.050781 173.949219s25.589844 127.484375 72.050781 173.949219c46.464844 46.460937 108.238281 72.050781 173.949219 72.050781s127.484375-25.589844 173.949219-72.050781c46.460937-46.464844 72.050781-108.238281 72.050781-173.949219 0-5.523438-4.476562-10-10-10zm-290 10c0 29.773438 24.222656 54 54 54 26.359375 0 48.351562-18.988281 53.058594-44h44.433594c-5.023438 49.359375-46.832032 88-97.492188 88-54.039062 0-98-43.964844-98-98 0-50.660156 38.640625-92.46875 88-97.492188v44.433594c-25.011719 4.707032-44 26.699219-44 53.058594zm88 0c0 18.746094-15.253906 34-34 34s-34-15.253906-34-34 15.253906-34 34-34 34 15.253906 34 34zm-34 226c-124.617188 0-226-101.382812-226-226 0-121.261719 96.011719-220.527344 216-225.78125v44.039062c-95.734375 5.210938-172.019531 84.730469-172.019531 181.742188 0 82.074219 55.273437 154.335938 134.410156 175.726562.875.238282 1.753906.351563 2.617187.351563 4.40625 0 8.441407-2.9375 9.648438-7.394531 1.441406-5.332032-1.714844-10.820313-7.046875-12.261719-70.433594-19.039063-119.628906-83.363281-119.628906-156.421875 0-85.980469 67.324219-156.519531 152.019531-161.699219v44.128907c-60.402344 5.089843-108 55.875-108 117.570312 0 65.066406 52.933594 118 118 118 61.695312 0 112.480469-47.597656 117.570312-108h44.140626c-4.257813 69.03125-52.269532 128.464844-119.683594 146.519531-5.332032 1.425781-8.5 6.910157-7.070313 12.246094 1.195313 4.46875 5.238281 7.414063 9.652344 7.414063.855469 0 1.726563-.109376 2.59375-.34375 76.144531-20.390626 130.25-87.761719 134.53125-165.835938h44.046875c-5.253906 119.988281-104.519531 216-225.78125 216zm0 0"/><path d="m502 88h-64c-5.523438 0-10 4.476562-10 10v16.332031h-54c-5.523438 0-10 4.476563-10 10v26.667969h-54c-5.523438 0-10 4.476562-10 10v57c0 5.523438 4.476562 10 10 10h192c5.523438 0 10-4.476562 10-10v-120c0-5.523438-4.476562-10-10-10zm-182 83h44v37h-44zm64-10v-26.667969h44v73.667969h-44zm108 47h-44v-100h44zm0 0"/><path d="m310.007812 126.003906c1.636719 0 3.292969-.402344 4.824219-1.25l163.691407-90.371094c.234374 3.214844 2.007812 6.253907 5.015624 7.96875 1.566407.890626 3.269532 1.316407 4.949219 1.316407 3.472657 0 6.847657-1.8125 8.695313-5.046875l13.5-23.667969c1.765625-3.09375 1.753906-6.894531-.035156-9.976563-1.789063-3.082031-5.085938-4.976562-8.648438-4.976562h-27.007812c-5.519532 0-10 4.476562-10 10 0 2.867188 1.214843 5.445312 3.148437 7.269531l-162.972656 89.976563c-4.835938 2.667968-6.59375 8.75-3.921875 13.585937 1.824218 3.304688 5.238281 5.171875 8.761718 5.171875zm0 0"/><path d="m246 428.019531c-2.628906 0-5.210938 1.070313-7.070312 2.929688-1.859376 1.859375-2.929688 4.441406-2.929688 7.070312 0 2.628907 1.070312 5.210938 2.929688 7.070313 1.859374 1.859375 4.441406 2.929687 7.070312 2.929687s5.210938-1.070312 7.070312-2.929687c1.859376-1.859375 2.929688-4.441406 2.929688-7.070313 0-2.628906-1.070312-5.210937-2.929688-7.070312-1.859374-1.859375-4.441406-2.929688-7.070312-2.929688zm0 0"/></svg>