<?xml version="1.0" encoding="iso-8859-1"?>
<!-- Generator: Adobe Illustrator 19.0.0, SVG Export Plug-In . SVG Version: 6.00 Build 0)  -->
<svg version="1.1" id="Layer_1" xmlns="http://www.w3.org/2000/svg" xmlns:xlink="http://www.w3.org/1999/xlink" x="0px" y="0px"
	 viewBox="0 0 512 512" style="enable-background:new 0 0 512 512;" xml:space="preserve">
<path style="fill:#FFEEC0;" d="M408.316,99.849V53.028c0-21.927-17.776-39.703-39.703-39.703H143.388
	c-21.927,0-39.703,17.776-39.703,39.703v46.821h197.012"/>
<path style="fill:#FFC61B;" d="M408.315,113.173c-7.358,0-13.325-5.965-13.325-13.325v-46.82c0-14.545-11.834-26.379-26.379-26.379
	H143.388c-14.546,0-26.379,11.834-26.379,26.379v33.497h183.687c7.358,0,13.325,5.965,13.325,13.325s-5.967,13.325-13.325,13.325
	H103.685c-7.359,0-13.325-5.965-13.325-13.325V53.028C90.36,23.788,114.149,0,143.388,0h225.224
	c29.239,0,53.028,23.788,53.028,53.028v46.821C421.64,107.208,415.674,113.173,408.315,113.173z"/>
<path style="fill:#FFEEC0;" d="M103.685,405.778v53.194c0,21.927,17.776,39.703,39.703,39.703h225.225
	c21.927,0,39.703-17.776,39.703-39.703v-53.194H211.303"/>
<g>
	<path style="fill:#FFC61B;" d="M368.612,512H143.388c-29.239,0-53.028-23.788-53.028-53.028v-53.194
		c0-7.359,5.965-13.325,13.325-13.325s13.325,5.965,13.325,13.325v53.194c0,14.545,11.834,26.379,26.379,26.379h225.224
		c14.545,0,26.379-11.834,26.379-26.379v-39.87H211.303c-7.359,0-13.325-5.965-13.325-13.325c0-7.359,5.965-13.325,13.325-13.325
		h197.012c7.358,0,13.325,5.965,13.325,13.325v53.194C421.64,488.212,397.853,512,368.612,512z"/>
	<path style="fill:#FFC61B;" d="M278.94,465.315h-45.879c-7.359,0-13.325-5.965-13.325-13.325s5.965-13.325,13.325-13.325h45.879
		c7.358,0,13.325,5.965,13.325,13.325S286.298,465.315,278.94,465.315z"/>
	<path style="fill:#FFC61B;" d="M103.685,423.74c-7.359,0-13.325-5.965-13.325-13.325V87.566c0-7.359,5.965-13.325,13.325-13.325
		s13.325,5.965,13.325,13.325v322.847C117.01,417.774,111.044,423.74,103.685,423.74z"/>
	<path style="fill:#FFC61B;" d="M408.315,436.908c-7.358,0-13.325-5.965-13.325-13.325V83.955c0-7.359,5.967-13.325,13.325-13.325
		s13.325,5.965,13.325,13.325v339.628C421.64,430.943,415.674,436.908,408.315,436.908z"/>
	<path style="fill:#FFC61B;" d="M150.978,252.312l47.382-30.78c0.933-0.746,2.239-0.933,3.544-0.933
		c5.596,0,12.685,5.969,12.685,13.618c0,3.171-1.306,5.969-3.358,7.275L178.4,262.759l32.832,21.266
		c2.052,1.306,3.358,4.104,3.358,7.275c0,7.648-7.089,13.618-12.685,13.618c-1.306,0-2.612-0.187-3.544-0.933l-47.382-30.78
		c-4.291-2.798-5.783-7.275-5.783-10.446S146.687,255.109,150.978,252.312z"/>
	<path style="fill:#FFC61B;" d="M300.398,180.307c0,1.119-0.188,2.425-0.747,3.544l-65.663,134.497
		c-1.306,2.798-4.85,4.664-8.394,4.664c-6.342,0-10.446-5.223-10.446-9.887c0-1.119,0.373-2.425,0.933-3.544l65.477-134.497
		c1.492-3.171,4.477-4.664,7.835-4.664C294.614,170.42,300.398,174.337,300.398,180.307z"/>
	<path style="fill:#FFC61B;" d="M364.568,273.205l-47.383,30.78c-0.931,0.746-2.239,0.933-3.543,0.933
		c-5.596,0-12.686-5.969-12.686-13.618c0-3.171,1.306-5.969,3.359-7.275l32.832-21.266l-32.832-21.266
		c-2.052-1.306-3.359-4.104-3.359-7.275c0-7.648,7.089-13.618,12.686-13.618c1.304,0,2.612,0.187,3.543,0.933l47.383,30.78
		c4.29,2.798,5.783,7.275,5.783,10.446S368.858,270.406,364.568,273.205z"/>
</g>
<g>
</g>
<g>
</g>
<g>
</g>
<g>
</g>
<g>
</g>
<g>
</g>
<g>
</g>
<g>
</g>
<g>
</g>
<g>
</g>
<g>
</g>
<g>
</g>
<g>
</g>
<g>
</g>
<g>
</g>
</svg>
